<svg xmlns="http://www.w3.org/2000/svg" width="1920" height="786.042" viewBox="0 0 1920 786.042">
  <g id="Intersection_1" data-name="Intersection 1" transform="translate(-728 -270.086)" fill="#fdfdfd" opacity="0.13">
    <path d="M 976.498779296875 1055.628662109375 C 951.5840454101562 1055.629150390625 926.3685913085938 1054.017944335938 901.5523681640625 1050.840087890625 C 879.1714477539062 1047.97412109375 856.6311645507812 1043.7724609375 834.5576171875 1038.351684570312 C 798.1378784179688 1029.408447265625 762.457275390625 1017.074035644531 728.500244140625 1001.690185546875 L 728.500244140625 270.5864868164062 L 2647.499755859375 270.5864868164062 L 2647.499755859375 739.9736328125 C 2633.999755859375 743.3609619140625 2619.742431640625 746.40673828125 2605.117919921875 749.0278930664062 C 2592.34375 751.3171997070312 2579.2900390625 753.0426635742188 2566.319091796875 754.156494140625 C 2553.894775390625 755.223388671875 2541.131103515625 755.7645874023438 2528.38330078125 755.7645874023438 C 2518.68701171875 755.7648315429688 2508.705810546875 755.4522094726562 2498.717041015625 754.8357543945312 C 2489.17626953125 754.2467041015625 2479.304931640625 753.3602905273438 2469.377685546875 752.2009887695312 C 2451.0068359375 750.0557861328125 2432.007080078125 746.9591064453125 2411.292724609375 742.734130859375 C 2372.69873046875 734.8621826171875 2334.861328125 724.4600830078125 2294.802490234375 713.4467163085938 C 2290.83056640625 712.3547973632812 2286.723388671875 711.2257690429688 2282.668212890625 710.1138916015625 C 2259.314697265625 703.7100830078125 2239.5859375 698.407470703125 2219.2080078125 693.3422241210938 C 2195.2568359375 687.3888549804688 2173.648193359375 682.6019897460938 2153.147216796875 678.7079467773438 C 2128.91162109375 674.1043701171875 2106.162109375 670.7177124023438 2083.59912109375 668.3546142578125 C 2071.422607421875 667.0791015625 2059.18994140625 666.1031494140625 2047.240478515625 665.453369140625 C 2034.71142578125 664.772216796875 2022.073852539062 664.4269409179688 2009.678344726562 664.4269409179688 C 1995.65625 664.4269409179688 1981.468139648438 664.868408203125 1967.508544921875 665.7393798828125 C 1952.973388671875 666.646240234375 1938.2197265625 668.0474243164062 1923.657836914062 669.9041137695312 C 1908.556396484375 671.82958984375 1893.188598632812 674.3050537109375 1877.98095703125 677.26171875 C 1862.26171875 680.3179321289062 1846.23046875 683.9819946289062 1830.332641601562 688.1524658203125 C 1808.925537109375 693.7679443359375 1787.55859375 700.0838623046875 1766.825439453125 706.924560546875 C 1747.123779296875 713.425048828125 1727.362182617188 720.608154296875 1708.089233398438 728.2748413085938 C 1689.92431640625 735.5007934570312 1671.578857421875 743.4012451171875 1653.561889648438 751.7567138671875 C 1636.776000976562 759.54150390625 1619.657104492188 768.0086669921875 1602.681396484375 776.9231567382812 C 1537.026611328125 811.4007568359375 1479.756958007812 849.0724487304688 1424.372802734375 885.5038452148438 C 1398.1611328125 902.7455444335938 1373.403076171875 919.03125 1348.031616210938 934.83984375 C 1334.40478515625 943.33056640625 1321.901489257812 950.8712768554688 1309.807373046875 957.8924560546875 C 1296.275756835938 965.7481689453125 1283.562133789062 972.7793579101562 1270.93994140625 979.387451171875 C 1242.828857421875 994.1046142578125 1216.174072265625 1006.167663574219 1189.4521484375 1016.265808105469 C 1175.033813476562 1021.714599609375 1160.387084960938 1026.6484375 1145.918823242188 1030.930053710938 C 1130.7900390625 1035.407470703125 1115.312622070312 1039.333129882812 1099.916625976562 1042.598388671875 C 1078.939819335938 1047.047241210938 1057.59814453125 1050.399169921875 1036.484497070312 1052.560791015625 C 1016.60546875 1054.596069335938 996.42333984375 1055.628173828125 976.498779296875 1055.628662109375 Z" stroke="none"/>
    <path d="M 976.498779296875 1056.128662109375 L 976.498779296875 1055.128662109375 C 996.4064331054688 1055.128173828125 1016.571411132812 1054.096923828125 1036.43359375 1052.063354492188 C 1057.529541015625 1049.903442382812 1078.853393554688 1046.554321289062 1099.813110351562 1042.109130859375 C 1115.196166992188 1038.8466796875 1130.660766601562 1034.92431640625 1145.77685546875 1030.450805664062 C 1160.233520507812 1026.172241210938 1174.868530273438 1021.242431640625 1189.275268554688 1015.798156738281 C 1215.978149414062 1005.706970214844 1242.614990234375 993.6522216796875 1270.708129882812 978.9443359375 C 1283.323608398438 972.33984375 1296.031005859375 965.3121948242188 1309.556396484375 957.4598388671875 C 1321.645751953125 950.4414672851562 1334.144775390625 942.9033813476562 1347.76708984375 934.41552734375 C 1373.133544921875 918.6100463867188 1397.889038085938 902.3262329101562 1424.09814453125 885.0859985351562 C 1479.492431640625 848.64794921875 1536.772338867188 810.9693603515625 1602.449096679688 776.4805297851562 C 1619.431884765625 767.5621948242188 1636.55810546875 759.0912475585938 1653.351684570312 751.3029174804688 C 1671.376708984375 742.9436645507812 1689.73095703125 735.0396118164062 1707.904541015625 727.810302734375 C 1727.186645507812 720.1400756835938 1746.957885742188 712.9531860351562 1766.668823242188 706.4498291015625 C 1787.41162109375 699.6057739257812 1808.78857421875 693.2869873046875 1830.205688476562 687.6686401367188 C 1846.11376953125 683.4955444335938 1862.15576171875 679.8291015625 1877.8857421875 676.770751953125 C 1893.103759765625 673.8121948242188 1908.482421875 671.3350830078125 1923.594482421875 669.4081420898438 C 1938.167114257812 667.550048828125 1952.931396484375 666.14794921875 1967.477416992188 665.2405395507812 C 1981.447387695312 664.368896484375 1995.645751953125 663.9269409179688 2009.678344726562 663.9269409179688 C 2022.082885742188 663.9269409179688 2034.7294921875 664.272705078125 2047.267578125 664.954345703125 C 2059.225341796875 665.6043701171875 2071.46630859375 666.5812377929688 2083.65087890625 667.857421875 C 2106.228271484375 670.2219848632812 2128.9912109375 673.6105346679688 2153.240478515625 678.2167358398438 C 2173.750732421875 682.1126708984375 2195.368408203125 686.9014892578125 2219.328857421875 692.857177734375 C 2239.7109375 697.9234008789062 2259.443359375 703.2269897460938 2282.800537109375 709.6317138671875 C 2286.856201171875 710.74365234375 2290.9638671875 711.8729248046875 2294.9365234375 712.965087890625 C 2334.98681640625 723.9757690429688 2372.816162109375 734.3760375976562 2411.393310546875 742.2443237304688 C 2432.09375 746.4664916992188 2451.079833984375 749.56103515625 2469.43603515625 751.704345703125 C 2479.354248046875 752.8626708984375 2489.21630859375 753.7481689453125 2498.748046875 754.3364868164062 C 2508.7265625 754.9524536132812 2518.697265625 755.2648315429688 2528.38330078125 755.2645874023438 C 2541.1171875 755.2643432617188 2553.8662109375 754.72412109375 2566.276123046875 753.6583862304688 C 2579.232177734375 752.5457763671875 2592.270751953125 750.8224487304688 2605.029541015625 748.5357666015625 C 2619.507080078125 745.9411010742188 2633.62255859375 742.9302368164062 2646.999755859375 739.5835571289062 L 2646.999755859375 271.0864868164062 L 729.000244140625 271.0864868164062 L 729.000244140625 1001.367614746094 C 762.8417358398438 1016.677429199219 798.3917846679688 1028.955810546875 834.6768798828125 1037.8662109375 C 856.7321166992188 1043.282470703125 879.2537841796875 1047.480590820312 901.615966796875 1050.344116210938 C 926.4109497070312 1053.519409179688 951.605224609375 1055.129150390625 976.498779296875 1055.128662109375 L 976.498779296875 1056.128662109375 M 976.498779296875 1056.128662109375 C 871.5997314453125 1056.130249023438 785.403076171875 1028.055786132812 728.000244140625 1002.012451171875 L 728.000244140625 270.0864868164062 L 2647.999755859375 270.0864868164062 L 2647.999755859375 740.3636474609375 C 2634.546142578125 743.7490844726562 2620.312255859375 746.8126831054688 2605.2060546875 749.5200805664062 C 2578.980712890625 754.2200317382812 2553.454345703125 756.264404296875 2528.38330078125 756.2647094726562 C 2444.5849609375 756.2657470703125 2365.81494140625 733.4308471679688 2282.535888671875 710.5960083007812 C 2199.2666015625 687.7630615234375 2111.47216796875 664.9268798828125 2009.678466796875 664.9268798828125 C 1954.548217773438 664.9268798828125 1895.328735351562 671.619140625 1830.45947265625 688.6360473632812 C 1490.187622070312 777.89794921875 1362.213134765625 987.4817504882812 1100.0205078125 1043.08740234375 C 1056.636474609375 1052.288452148438 1015.285217285156 1056.1279296875 976.498779296875 1056.128662109375 Z" stroke="none" fill="#707070"/>
  </g>
</svg>
