<svg xmlns="http://www.w3.org/2000/svg" width="1920" height="786.042" viewBox="0 0 1920 786.042">
  <g id="Intersection_4" data-name="Intersection 4" transform="translate(1262 -270.086)" fill="#fdfdfd" opacity="0.13">
    <path d="M 212.1002349853516 1055.628540039062 L 212.1002349853516 1055.628540039062 L 212.0947570800781 1055.628540039062 C 192.1704711914062 1055.628295898438 171.9883270263672 1054.59619140625 152.1088104248047 1052.560668945312 C 130.9954833984375 1050.399047851562 109.65380859375 1047.047119140625 88.67642974853516 1042.598266601562 C 73.28047943115234 1039.3330078125 57.80309677124023 1035.407348632812 42.67428588867188 1030.929931640625 C 28.20595169067383 1026.648315429688 13.55928611755371 1021.714477539062 -0.8588095307350159 1016.265930175781 C -27.58071517944336 1006.167602539062 -54.23571395874023 994.1044921875 -82.34666442871094 979.3873291015625 C -94.96881103515625 972.7794799804688 -107.6823806762695 965.748291015625 -121.2140502929688 957.892333984375 C -133.3080902099609 950.8711547851562 -145.8111877441406 943.3306884765625 -159.4383392333984 934.8399658203125 C -184.8097686767578 919.0313720703125 -209.5676116943359 902.7456665039062 -235.7792816162109 885.5040283203125 C -291.163330078125 849.0725708007812 -348.43310546875 811.4006958007812 -414.0878601074219 776.9232788085938 C -431.0635681152344 768.0087890625 -448.182373046875 759.5413818359375 -464.9685668945312 751.7566528320312 C -482.9852294921875 743.4011840820312 -501.3309631347656 735.5006713867188 -519.4957275390625 728.2749633789062 C -538.768798828125 720.6082763671875 -558.5304565429688 713.4249877929688 -578.2321166992188 706.9244995117188 C -598.9652099609375 700.0838012695312 -620.3323974609375 693.76806640625 -641.739501953125 688.15234375 C -657.63427734375 683.9826049804688 -673.664306640625 680.3190307617188 -689.38427734375 677.2628173828125 C -704.5921630859375 674.306396484375 -719.960693359375 671.8309326171875 -735.0635986328125 669.9052124023438 C -749.6271362304688 668.0482788085938 -764.3816528320312 666.6468505859375 -778.9173583984375 665.73974609375 C -792.8783569335938 664.8685302734375 -807.0657348632812 664.4268798828125 -821.08544921875 664.4268798828125 C -833.4823608398438 664.4268798828125 -846.1212158203125 664.7720947265625 -858.6506958007812 665.4533081054688 C -870.6009521484375 666.1028442382812 -882.8340454101562 667.0787963867188 -895.01025390625 668.35400390625 C -917.5733032226562 670.7171020507812 -940.3218994140625 674.103515625 -964.5559692382812 678.7068481445312 C -985.0552368164062 682.6008911132812 -1006.662841796875 687.3878173828125 -1030.613525390625 693.3413696289062 C -1050.985473632812 698.4052124023438 -1070.716674804688 703.7085571289062 -1094.074951171875 710.11376953125 C -1098.129272460938 711.2254638671875 -1102.235717773438 712.354248046875 -1106.206909179688 713.4461669921875 C -1133.14208984375 720.8511352539062 -1158.583618164062 727.845703125 -1184.460693359375 734.1370849609375 C -1198.36376953125 737.517333984375 -1211.045654296875 740.36474609375 -1223.231201171875 742.8421020507812 C -1236.662963867188 745.5729370117188 -1249.188720703125 747.795166015625 -1261.499755859375 749.6311645507812 L -1261.499755859375 270.5863952636719 L 657.5 270.5863952636719 L 657.5 891.1293334960938 C 621.0196533203125 913.4939575195312 590.5347290039062 930.4793701171875 571.3707275390625 940.796875 C 550.5604858398438 952.0004272460938 538.2445068359375 957.9747314453125 538.1226196289062 958.0337524414062 L 538.0795288085938 958.0545043945312 L 538.0411987304688 958.0833129882812 C 537.9595336914062 958.1442260742188 529.7076416015625 964.2854614257812 514.5906982421875 973.3268432617188 C 505.7123718261719 978.6369018554688 496.2385864257812 983.8935546875 486.432373046875 988.950439453125 C 474.1749877929688 995.2716064453125 461.3604736328125 1001.29736328125 448.3452453613281 1006.859741210938 C 415.2173767089844 1021.018310546875 380.6033325195312 1032.299194335938 345.4647521972656 1040.389282226562 C 324.6021423339844 1045.192626953125 303.3204650878906 1048.909912109375 282.2104797363281 1051.437866210938 C 258.990234375 1054.218505859375 235.4033355712891 1055.628540039062 212.10546875 1055.628540039062 C 212.1037292480469 1055.628540039062 212.1019744873047 1055.628540039062 212.1002349853516 1055.628540039062 Z" stroke="none"/>
    <path d="M 212.10546875 1055.128540039062 C 235.3795166015625 1055.128540039062 258.942138671875 1053.72021484375 282.1388244628906 1050.94287109375 C 303.2278442382812 1048.417846679688 324.4885864257812 1044.704956054688 345.3307189941406 1039.907104492188 C 380.4366760253906 1031.82568359375 415.019287109375 1020.556884765625 448.1173706054688 1006.413513183594 C 461.1216735839844 1000.856384277344 473.9254760742188 994.8368530273438 486.172607421875 988.5218505859375 C 495.97119140625 983.469482421875 505.4376220703125 978.2178344726562 514.308837890625 972.912841796875 C 529.41455078125 963.8795166015625 537.6602172851562 957.7437744140625 537.7418823242188 957.6828002929688 L 537.8185424804688 957.6254272460938 L 537.90478515625 957.5838012695312 C 538.0266723632812 957.5247192382812 550.3383178710938 951.5523681640625 571.1409301757812 940.3526000976562 C 590.2567749023438 930.0607299804688 620.6366577148438 913.1350708007812 657 890.849365234375 L 657 271.0863952636719 L -1260.999755859375 271.0863952636719 L -1260.999755859375 749.0506591796875 C -1248.881591796875 747.232666015625 -1236.546020507812 745.038818359375 -1223.330932617188 742.3521118164062 C -1211.151489257812 739.8759155273438 -1198.475708007812 737.0299682617188 -1184.578857421875 733.6513671875 C -1158.708862304688 727.3616333007812 -1133.27099609375 720.3680419921875 -1106.339233398438 712.9639892578125 C -1102.368041992188 711.8721313476562 -1098.26171875 710.7432861328125 -1094.207397460938 709.6316528320312 C -1070.845703125 703.2254638671875 -1051.111450195312 697.921142578125 -1030.734252929688 692.8561401367188 C -1006.774536132812 686.9002075195312 -985.1578369140625 682.1113891601562 -964.6492919921875 678.2156982421875 C -940.4014282226562 673.6097412109375 -917.6392822265625 670.2213745117188 -895.0621337890625 667.8568725585938 C -882.8776245117188 666.5809326171875 -870.6361694335938 665.604248046875 -858.6778564453125 664.9540405273438 C -846.1392822265625 664.2725830078125 -833.491455078125 663.9268798828125 -821.08544921875 663.9268798828125 C -807.0554809570312 663.9268798828125 -792.8576049804688 664.3690185546875 -778.8861694335938 665.2406616210938 C -764.3397827148438 666.1485595703125 -749.5745239257812 667.5509033203125 -735.00048828125 669.4092407226562 C -719.8869018554688 671.33642578125 -704.5071411132812 673.8135375976562 -689.288818359375 676.7720947265625 C -673.558349609375 679.8302001953125 -657.5178833007812 683.4963989257812 -641.6126098632812 687.6685180664062 C -620.1954956054688 693.286865234375 -598.818359375 699.6058959960938 -578.0755004882812 706.44970703125 C -558.364501953125 712.9533081054688 -538.5933227539062 720.1399536132812 -519.3109741210938 727.8101806640625 C -501.1373901367188 735.0394897460938 -482.7833251953125 742.9437866210938 -464.7580871582031 751.3030395507812 C -447.9645385742188 759.0911865234375 -430.8383483886719 767.5621337890625 -413.85546875 776.4806518554688 C -348.1788024902344 810.969482421875 -290.8988037109375 848.6480712890625 -235.5045166015625 885.086181640625 C -209.2954711914062 902.326416015625 -184.5399932861328 918.6102294921875 -159.1738128662109 934.4157104492188 C -145.5514221191406 942.903564453125 -133.0523834228516 950.44140625 -120.9630966186523 957.4599609375 C -107.4376220703125 965.3121337890625 -94.73023986816406 972.3397216796875 -82.11476135253906 978.9445190429688 C -54.02190399169922 993.652099609375 -27.38500022888184 1005.707092285156 -0.6821428537368774 1015.798034667969 C 13.72452354431152 1021.242370605469 28.35952377319336 1026.17236328125 42.81618881225586 1030.45068359375 C 57.93238067626953 1034.924194335938 73.39690399169922 1038.8466796875 88.77999877929688 1042.109008789062 C 109.740234375 1046.55419921875 131.0640411376953 1049.9033203125 152.1597595214844 1052.063354492188 C 172.0223846435547 1054.09716796875 192.1873779296875 1055.128295898438 212.0947570800781 1055.128540039062 L 212.1000061035156 1055.128540039062 L 212.10546875 1055.128540039062 M 212.1054992675781 1056.128540039062 C 212.0935516357422 1056.128540039062 212.1067047119141 1056.128540039062 212.0947570800781 1056.128540039062 C 173.3083343505859 1056.128051757812 131.9569091796875 1052.288330078125 88.57261657714844 1043.08740234375 C -173.6199951171875 987.4818725585938 -301.5935668945312 777.8980712890625 -641.866455078125 688.6359252929688 C -706.724365234375 671.6220092773438 -765.9633178710938 664.9267578125 -821.0855102539062 664.9267578125 C -922.8915405273438 664.9267578125 -1010.666259765625 687.7608032226562 -1093.94287109375 710.595947265625 C -1151.057861328125 726.2568969726562 -1206.048095703125 741.9166259765625 -1261.999755859375 750.2109375 L -1261.999755859375 270.0863952636719 L 658 270.0863952636719 L 658 891.4092407226562 C 587.1466674804688 934.8611450195312 538.3404541015625 958.4837646484375 538.3404541015625 958.4837646484375 C 538.3404541015625 958.4837646484375 407.7060852050781 1056.128540039062 212.1054992675781 1056.128540039062 Z" stroke="none" fill="#707070"/>
  </g>
</svg>
